<?xml version="1.0" encoding="UTF-8" standalone="no"?>
<!DOCTYPE svg PUBLIC "-//W3C//DTD SVG 1.1//EN" "http://www.w3.org/Graphics/SVG/1.1/DTD/svg11.dtd">
<svg width="100%" height="100%" viewBox="0 0 56 60" version="1.1" xmlns="http://www.w3.org/2000/svg" xmlns:xlink="http://www.w3.org/1999/xlink" xml:space="preserve" xmlns:serif="http://www.serif.com/" style="fill-rule:evenodd;clip-rule:evenodd;stroke-linecap:round;stroke-linejoin:round;stroke-miterlimit:1.5;">
    <g transform="matrix(1,0,0,1,-1286.532966,-380.814198)">
        <g transform="matrix(-1,-0,0,-1,2529.481636,816.531928)">
            <path d="M1213.092,379.814C1175.463,413.614 1197.823,429.386 1201.168,428.509C1212.29,425.596 1203.291,400.447 1193.227,411.132" style="fill:none;stroke:rgb(255,202,64);stroke-width:8px;"/>
        </g>
        <g transform="matrix(-1,-0,0,-1,2529.481636,816.531928)">
            <path d="M1238.662,385.497C1236.385,388.649 1206.497,426.145 1231.806,431.615C1239.782,433.339 1245.444,412.793 1223.986,409.096" style="fill:none;stroke:rgb(255,202,64);stroke-width:8px;"/>
        </g>
        <g transform="matrix(-1,-0,0,-1,2529.481636,816.531928)">
            <path d="M1193.784,416.243C1200.46,412.905 1201.566,413.979 1203.549,412.988C1205.93,411.797 1200.692,416.056 1199.643,416.405C1199.338,416.507 1196.225,418.846 1196.225,418.847C1195.547,419.525 1196.913,420.461 1197.202,420.474C1199.47,420.582 1201.609,419.973 1199.968,421.614C1198.204,423.378 1198.213,423.332 1197.934,423.689C1198.132,423.722 1199.741,423.99 1200.294,424.543" style="fill:none;stroke:rgb(255,202,64);stroke-width:8px;"/>
        </g>
        <g transform="matrix(-1,-0,0,-1,2529.481636,816.531928)">
            <path d="M1225.358,415.754C1225.73,415.631 1237.452,412.23 1230.403,415.754C1229.767,416.073 1224.265,418.823 1223.079,420.8C1222.235,422.207 1234.819,419.219 1231.054,420.474C1227.96,421.506 1228.253,422.059 1225.195,423.078C1220.568,424.621 1238.742,419.967 1233.821,422.427C1231.543,423.567 1229.287,425.823 1228.939,426.171C1226.658,428.452 1229.747,427.473 1233.007,427.473C1235.95,427.473 1231.638,426.889 1229.59,428.937C1229.351,429.176 1229.85,428.726 1233.333,426.984C1238.758,424.272 1235.967,421.481 1235.611,421.125C1233.31,418.823 1232.91,415.629 1232.845,415.103" style="fill:none;stroke:rgb(255,202,64);stroke-width:8px;"/>
        </g>
    </g>
</svg>
