<?xml version="1.0" encoding="UTF-8" standalone="no"?>
<!DOCTYPE svg PUBLIC "-//W3C//DTD SVG 1.1//EN" "http://www.w3.org/Graphics/SVG/1.1/DTD/svg11.dtd">
<svg width="100%" height="100%" viewBox="0 0 552 111" version="1.1" xmlns="http://www.w3.org/2000/svg" xmlns:xlink="http://www.w3.org/1999/xlink" xml:space="preserve" xmlns:serif="http://www.serif.com/" style="fill-rule:evenodd;clip-rule:evenodd;stroke-linecap:round;stroke-linejoin:round;stroke-miterlimit:1.5;">
    <g transform="matrix(1,0,0,1,-747.30967,-448.794444)">
        <g id="Capa3">
            <g transform="matrix(1,0,0,1,21,-2)">
                <path d="M770.317,481.329C742.169,535.192 733.588,550.911 730.31,556.916" style="fill:none;stroke:rgb(255,202,64);stroke-width:8px;"/>
            </g>
            <g transform="matrix(1,0,0,1,21,-2)">
                <path d="M792.961,477.923C772.499,514.914 773.946,515.509 753.699,552.547" style="fill:none;stroke:rgb(255,202,64);stroke-width:8px;"/>
            </g>
            <g transform="matrix(1,0,0,1,7,-2)">
                <path d="M841.007,486.741C838.996,486.054 821.304,477.196 815.567,498.386C814.356,502.862 815.974,510.307 826.52,512.378C840.4,515.102 861.024,515.127 856.638,538.377C855.045,546.823 829.475,567.289 815.266,533.299" style="fill:none;stroke:rgb(255,202,64);stroke-width:8px;"/>
            </g>
            <g transform="matrix(1,0,0,1,6,-2)">
                <path d="M894.481,474.163C885.411,515.285 882.652,514.382 870.835,554.933" style="fill:none;stroke:rgb(255,202,64);stroke-width:8px;"/>
            </g>
            <g transform="matrix(1,0,0,1,6,-2)">
                <path d="M855.27,488.129C864.438,495.569 873.606,503.008 882.774,510.447" style="fill:none;stroke:rgb(255,202,64);stroke-width:8px;"/>
            </g>
            <g transform="matrix(1,0,0,1,4,-3)">
                <path d="M928.858,487.592C902.682,472.663 893.137,505.169 916.173,510.139C930.45,513.22 948.804,511.611 945.57,534.311C944.015,545.232 911.766,557.786 905.915,530.637" style="fill:none;stroke:rgb(255,202,64);stroke-width:8px;"/>
            </g>
            <path d="M972.367,539.695C967.092,517.303 965.763,514.505 961.222,485.067" style="fill:none;stroke:rgb(255,202,64);stroke-width:8px;"/>
            <path d="M941.213,492.963C958.779,490.272 959.033,491.885 983.992,482.433" style="fill:none;stroke:rgb(255,202,64);stroke-width:8px;"/>
            <g transform="matrix(1,0,0,1,-5,0)">
                <path d="M999.761,481.146C1000.854,492.296 1001.515,492.656 1003.393,539.339" style="fill:none;stroke:rgb(255,202,64);stroke-width:8px;"/>
            </g>
            <g transform="matrix(1,0,0,1,-5,0)">
                <path d="M999.761,481.146C1008.819,480.005 1017.876,478.863 1026.934,477.721" style="fill:none;stroke:rgb(255,202,64);stroke-width:8px;"/>
            </g>
            <g transform="matrix(1,0,0,1,-5,0)">
                <path d="M1002.447,510.152C1008.704,508.969 1014.961,507.786 1021.217,506.603" style="fill:none;stroke:rgb(255,202,64);stroke-width:8px;"/>
            </g>
            <g transform="matrix(1,0,0,1,-5,0)">
                <path d="M1004.596,539.695C1016.556,534.534 1016.421,534.753 1028.975,530.583" style="fill:none;stroke:rgb(255,202,64);stroke-width:8px;"/>
            </g>
            <g transform="matrix(1,0,0,1,-10,-1)">
                <path d="M1045.956,527.341C1041.373,500.182 1039.67,490.82 1039.094,487.65C1049.838,499.968 1049.48,500.043 1059.385,513.159C1062.31,504.579 1062.05,504.633 1070.037,472.792C1078.171,504.425 1075.58,504.755 1083.75,536.474" style="fill:none;stroke:rgb(255,202,64);stroke-width:8px;"/>
            </g>
            <g transform="matrix(1,0,0,1,-46,4)">
                <path d="M1163.053,521.969C1155.669,498.727 1155.758,498.925 1150.05,475.327C1161.98,490.896 1164.466,489.333 1185.831,518.228C1184.08,497.271 1182.089,496.363 1179.571,461.419" style="fill:none;stroke:rgb(255,202,64);stroke-width:8px;"/>
            </g>
            <g transform="matrix(1,0,0,1,-51,5)">
                <path d="M1213.395,462.106C1189.598,493.127 1204.858,517.671 1214.243,516.788C1223.685,515.9 1233.268,489.055 1211.655,467.957" style="fill:none;stroke:rgb(255,202,64);stroke-width:8px;"/>
            </g>
            <g transform="matrix(1,0,0,1,-52,5)">
                <path d="M1242.013,456.975C1242.587,484.244 1242.516,484.109 1244.249,511.366" style="fill:none;stroke:rgb(255,202,64);stroke-width:8px;"/>
            </g>
            <g transform="matrix(1,0,0,1,-52,5)">
                <path d="M1229.658,467.181C1245.112,466.513 1244.971,466.482 1260.387,465.941" style="fill:none;stroke:rgb(255,202,64);stroke-width:8px;"/>
            </g>
            <g transform="matrix(1,0,0,1,-62,6)">
                <path d="M1281.761,461.272C1287.428,506.714 1288.727,507.19 1289.534,511.214" style="fill:none;stroke:rgb(255,202,64);stroke-width:8px;"/>
            </g>
            <g transform="matrix(1,0,0,1,-62,6)">
                <path d="M1281.224,463.421C1284.949,462.491 1288.724,461.768 1292.449,460.838C1293.866,460.485 1293.758,460.5 1310.117,456.274" style="fill:none;stroke:rgb(255,202,64);stroke-width:8px;"/>
            </g>
            <g transform="matrix(1,0,0,1,-62,6)">
                <path d="M1285.521,483.832C1290.527,482.838 1295.533,481.844 1300.539,480.85" style="fill:none;stroke:rgb(255,202,64);stroke-width:8px;"/>
            </g>
            <g transform="matrix(1,0,0,1,-62,6)">
                <path d="M1288.744,513.912C1290.504,513.231 1290.433,513.17 1310.652,505.161" style="fill:none;stroke:rgb(255,202,64);stroke-width:8px;"/>
            </g>
            <g transform="matrix(1,0,0,1,-67,1)">
                <path d="M1355.35,458.586C1327.217,437.312 1315.985,472.778 1330.034,473.149C1345.254,473.552 1372.086,472.35 1358.096,502.379C1347.578,524.953 1327.486,512.706 1329.614,492.751" style="fill:none;stroke:rgb(255,202,64);stroke-width:8px;"/>
            </g>
        </g>
    </g>
</svg>
