<?xml version="1.0" encoding="UTF-8" standalone="no"?>
<!DOCTYPE svg PUBLIC "-//W3C//DTD SVG 1.1//EN" "http://www.w3.org/Graphics/SVG/1.1/DTD/svg11.dtd">
<svg width="100%" height="100%" viewBox="0 0 64 42" version="1.1" xmlns="http://www.w3.org/2000/svg" xmlns:xlink="http://www.w3.org/1999/xlink" xml:space="preserve" xmlns:serif="http://www.serif.com/" style="fill-rule:evenodd;clip-rule:evenodd;stroke-linecap:round;stroke-linejoin:round;stroke-miterlimit:1.5;">
    <g transform="matrix(1,0,0,1,-1530.634236,-651.622808)">
        <path d="M1532.634,671.618C1535.684,681.613 1535.2,681.71 1539.174,691.408" style="fill:none;stroke:rgb(255,202,64);stroke-width:4px;"/>
        <path d="M1532.954,672.578C1539.412,669.647 1539.326,669.529 1548.091,667.379" style="fill:none;stroke:rgb(255,202,64);stroke-width:4px;"/>
        <path d="M1533.594,681.215C1538.403,679.6 1538.327,679.594 1543.163,678.172" style="fill:none;stroke:rgb(255,202,64);stroke-width:4px;"/>
        <path d="M1554.227,669.219C1554.23,670.242 1553.229,695.352 1561.114,688.162C1567.113,682.69 1562.937,663.562 1562.931,663.527" style="fill:none;stroke:rgb(255,202,64);stroke-width:4px;"/>
        <path d="M1573.981,686.725C1573.08,675.921 1572.729,676.003 1572.027,665.213C1581.044,671.962 1580.153,672.86 1592.378,685.432C1592.786,671.615 1590.903,671.793 1588.998,653.623" style="fill:none;stroke:rgb(255,202,64);stroke-width:4px;"/>
    </g>
</svg>
