<?xml version="1.0" encoding="UTF-8" standalone="no"?>
<!DOCTYPE svg PUBLIC "-//W3C//DTD SVG 1.1//EN" "http://www.w3.org/Graphics/SVG/1.1/DTD/svg11.dtd">
<svg width="100%" height="100%" viewBox="0 0 52 44" version="1.1" xmlns="http://www.w3.org/2000/svg" xmlns:xlink="http://www.w3.org/1999/xlink" xml:space="preserve" xmlns:serif="http://www.serif.com/" style="fill-rule:evenodd;clip-rule:evenodd;stroke-linecap:round;stroke-linejoin:round;stroke-miterlimit:1.5;">
    <g transform="matrix(1,0,0,1,-1529.923739,-546.907748)">
        <g transform="matrix(1,0,0,1,-10,-38)">
            <path d="M1554.373,591.216C1553.236,592.125 1540.137,600.069 1542.363,615.424C1543.691,624.583 1552.409,630.776 1557.681,623.482C1562.125,617.333 1560.593,610.378 1552.727,608.316C1542.909,605.742 1536.959,618.763 1547.464,624.282C1552.792,627.081 1563.933,619.789 1556.418,612.032C1550.482,605.904 1540.036,615.095 1546.517,620.373C1550.582,623.684 1559.74,620.825 1556.125,615.746C1552.709,610.947 1543.357,615.096 1547.254,619.306C1550.409,622.714 1555.822,616.823 1551.141,617.027C1547.846,617.17 1549.099,620.221 1549.22,620.516" style="fill:none;stroke:rgb(255,202,64);stroke-width:4px;"/>
        </g>
        <g transform="matrix(1,0,0,1,-10,-38)">
            <path d="M1578.896,586.908C1562.203,603.151 1570.035,623.333 1579.42,621.528C1596.813,618.183 1587.902,601.645 1578.465,604.844C1574.368,606.232 1568.873,612.924 1573.685,618.227C1575.46,620.183 1582.073,621.683 1585.186,616.208C1586.179,614.464 1586.615,610.817 1583.441,607.71C1578.601,602.971 1570.133,610.636 1576.938,616.15C1582.941,621.015 1588.705,611.317 1581.501,608.825C1574.213,606.303 1573.275,616.111 1581.051,615.889C1588.764,615.669 1583.324,607.126 1578.266,609.702C1573.782,611.987 1580.421,617.77 1581.259,613.367C1581.291,613.202 1581.561,611.785 1580.354,611.466C1579.575,611.26 1579.434,611.654 1579.862,612.346" style="fill:none;stroke:rgb(255,202,64);stroke-width:4px;"/>
        </g>
    </g>
</svg>
