<?xml version="1.0" encoding="UTF-8" standalone="no"?>
<!DOCTYPE svg PUBLIC "-//W3C//DTD SVG 1.1//EN" "http://www.w3.org/Graphics/SVG/1.1/DTD/svg11.dtd">
<svg width="100%" height="100%" viewBox="0 0 251 27" version="1.1" xmlns="http://www.w3.org/2000/svg" xmlns:xlink="http://www.w3.org/1999/xlink" xml:space="preserve" xmlns:serif="http://www.serif.com/" style="fill-rule:evenodd;clip-rule:evenodd;stroke-linecap:round;stroke-linejoin:round;stroke-miterlimit:1.5;">
    <g transform="matrix(1,0,0,1,-1544.910005,-427.772797)">
        <g transform="matrix(1,0,0,1,2,-1)">
            <path d="M1544.91,447.777C1555.99,436.697 1570.973,431.409 1572.93,432.299C1574.887,433.188 1549.625,453.292 1556.652,453.114C1563.679,452.936 1607.088,432.788 1615.094,431.231C1620.427,430.194 1601.974,443.551 1604.687,443.774C1607.4,443.996 1605.741,440.367 1631.373,432.566C1643.066,429.007 1649.383,431.142 1646.05,435.501C1640.436,442.842 1632.974,444.574 1637.244,444.841C1641.513,445.108 1671.175,431.675 1671.669,437.102C1672.421,445.375 1659.045,451.399 1669.534,450.445C1674.256,450.016 1743.865,422.209 1729.844,443.24C1725.905,449.148 1729.747,450.383 1736.782,449.378C1762.77,445.665 1787.024,436.149 1790.955,434.701" style="fill:none;stroke:rgb(255,202,64);stroke-width:4px;"/>
        </g>
    </g>
</svg>
