<?xml version="1.0" encoding="UTF-8" standalone="no"?>
<!DOCTYPE svg PUBLIC "-//W3C//DTD SVG 1.1//EN" "http://www.w3.org/Graphics/SVG/1.1/DTD/svg11.dtd">
<svg width="100%" height="100%" viewBox="0 0 40 57" version="1.1" xmlns="http://www.w3.org/2000/svg" xmlns:xlink="http://www.w3.org/1999/xlink" xml:space="preserve" xmlns:serif="http://www.serif.com/" style="fill-rule:evenodd;clip-rule:evenodd;stroke-linecap:round;stroke-linejoin:round;stroke-miterlimit:1.5;">
    <g transform="matrix(1,0,0,1,-1617.317563,-206.287224)">
        <g transform="matrix(1,0,0,1,104,-84)">
            <path d="M1519.929,344.46C1525.08,319.828 1526.189,320.283 1532.82,296.08C1536.292,320.548 1535.551,320.461 1536.932,345.15" style="fill:none;stroke:rgb(255,202,64);stroke-width:4px;"/>
        </g>
        <g transform="matrix(1,0,0,1,104,-84)">
            <path d="M1515.318,333.464C1528.46,330.687 1528.315,330.717 1541.554,328.968" style="fill:none;stroke:rgb(255,202,64);stroke-width:4px;"/>
        </g>
        <g transform="matrix(1,0,0,1,104,-84)">
            <path d="M1550.887,344.171C1550.284,339.653 1549.965,338.7 1549.058,321.293" style="fill:none;stroke:rgb(255,202,64);stroke-width:4px;"/>
        </g>
        <g transform="matrix(1,0,0,1,104,-84)">
            <path d="M1547.218,305.809C1547.636,299.035 1547.633,299.065 1547.579,292.287" style="fill:none;stroke:rgb(255,202,64);stroke-width:4px;"/>
        </g>
    </g>
</svg>
