<?xml version="1.0" encoding="UTF-8" standalone="no"?>
<!DOCTYPE svg PUBLIC "-//W3C//DTD SVG 1.1//EN" "http://www.w3.org/Graphics/SVG/1.1/DTD/svg11.dtd">
<svg width="100%" height="100%" viewBox="0 0 148 66" version="1.1" xmlns="http://www.w3.org/2000/svg" xmlns:xlink="http://www.w3.org/1999/xlink" xml:space="preserve" xmlns:serif="http://www.serif.com/" style="fill-rule:evenodd;clip-rule:evenodd;stroke-linecap:round;stroke-linejoin:round;stroke-miterlimit:1.5;">
    <g transform="matrix(1,0,0,1,-1500.38182,-345.826564)">
        <g transform="matrix(1,0,0,1,-19,-5)">
            <path d="M1521.382,398.828C1523.773,395.457 1527.508,387.948 1540.259,384.112C1556.729,379.158 1565.886,413.722 1534.346,414.434" style="fill:none;stroke:rgb(255,202,64);stroke-width:4px;"/>
        </g>
        <g transform="matrix(1,0,0,1,-19,-5)">
            <path d="M1534.176,385.746C1540.165,405.029 1540.222,404.99 1543.274,412.443" style="fill:none;stroke:rgb(255,202,64);stroke-width:4px;"/>
        </g>
        <g transform="matrix(1,0,0,1,-19,-5)">
            <path d="M1557.464,383.159C1558.099,388.123 1559.277,397.336 1561.718,412.15" style="fill:none;stroke:rgb(255,202,64);stroke-width:4px;"/>
        </g>
        <g transform="matrix(1,0,0,1,-19,-5)">
            <path d="M1557.033,384.165C1561.621,382.738 1561.539,382.686 1571.146,380.017" style="fill:none;stroke:rgb(255,202,64);stroke-width:4px;"/>
        </g>
        <g transform="matrix(1,0,0,1,-19,-5)">
            <path d="M1560.914,397.247C1562.408,397.056 1563.901,396.865 1565.394,396.674" style="fill:none;stroke:rgb(255,202,64);stroke-width:4px;"/>
        </g>
        <g transform="matrix(1,0,0,1,-19,-5)">
            <path d="M1561.346,412.341C1566.643,408.648 1566.754,408.62 1573.308,405.935" style="fill:none;stroke:rgb(255,202,64);stroke-width:4px;"/>
        </g>
        <g transform="matrix(1,0,0,1,-19,-5)">
            <path d="M1591.822,379.852C1574.661,376.855 1577.12,383.993 1577.668,385.068C1581.587,392.752 1605.733,393.704 1595.412,403.371C1586.95,411.297 1569.822,404.695 1578.471,397.979" style="fill:none;stroke:rgb(255,202,64);stroke-width:4px;"/>
        </g>
        <g transform="matrix(1,0,0,1,-21,-5)">
            <path d="M1606.485,401.991C1605.108,389.2 1604.501,379.426 1604.379,377.461" style="fill:none;stroke:rgb(255,202,64);stroke-width:4px;"/>
        </g>
        <g transform="matrix(1,0,0,1,-21,-5)">
            <path d="M1597.14,363.321C1603.526,358.059 1603.417,357.997 1609.982,352.887" style="fill:none;stroke:rgb(255,202,64);stroke-width:4px;"/>
        </g>
        <g transform="matrix(1,0,0,1,-21,-5)">
            <path d="M1594.409,352.827C1595.462,353.565 1603.374,359.113 1607.589,362.04" style="fill:none;stroke:rgb(255,202,64);stroke-width:4px;"/>
        </g>
        <g transform="matrix(1,0,0,1,-21,-5)">
            <path d="M1637.524,378.979C1632.736,375.581 1622.476,375.479 1617.643,379.466C1606.822,388.391 1614.298,398.038 1620.472,400.086C1631.487,403.74 1636.283,397.049 1636.947,393.915C1637.328,392.116 1637.071,389.707 1636.487,389.258C1634.182,387.486 1629.921,388.205 1619.276,388.775" style="fill:none;stroke:rgb(255,202,64);stroke-width:4px;"/>
        </g>
        <g transform="matrix(1,0,0,1,-23,-8)">
            <path d="M1650.04,396.352C1646.104,386.71 1646.334,386.661 1644.615,380.948C1652.554,385.126 1653.213,384.981 1668.973,399.507C1669.05,391.927 1668.356,389.399 1663.039,371.234" style="fill:none;stroke:rgb(255,202,64);stroke-width:4px;"/>
        </g>
    </g>
</svg>
