<?xml version="1.0" encoding="UTF-8" standalone="no"?>
<!DOCTYPE svg PUBLIC "-//W3C//DTD SVG 1.1//EN" "http://www.w3.org/Graphics/SVG/1.1/DTD/svg11.dtd">
<svg width="100%" height="100%" viewBox="0 0 88 58" version="1.1" xmlns="http://www.w3.org/2000/svg" xmlns:xlink="http://www.w3.org/1999/xlink" xml:space="preserve" xmlns:serif="http://www.serif.com/" style="fill-rule:evenodd;clip-rule:evenodd;stroke-linecap:round;stroke-linejoin:round;stroke-miterlimit:1.5;">
    <g transform="matrix(1,0,0,1,-1629.754827,-272.05375)">
        <g transform="matrix(1,0,0,1,-14,-21)">
            <path d="M1649.452,305.527C1647.816,311.169 1644.406,321.318 1646.324,337.802C1647.351,346.635 1651.019,345.645 1653.216,343.047C1654.041,342.071 1657.668,339.964 1657.712,315.315" style="fill:none;stroke:rgb(255,202,64);stroke-width:4px;"/>
        </g>
        <g transform="matrix(1,0,0,1,-14,-21)">
            <path d="M1663.601,309.218C1666.144,317.681 1665.713,317.767 1668.195,326.236C1670.2,333.079 1670.381,333.003 1672.788,341.671" style="fill:none;stroke:rgb(255,202,64);stroke-width:4px;"/>
        </g>
        <g transform="matrix(1,0,0,1,-14,-21)">
            <path d="M1661.492,335.672C1668.616,325.316 1670.47,322.319 1680.421,314.302" style="fill:none;stroke:rgb(255,202,64);stroke-width:4px;"/>
        </g>
        <g transform="matrix(1,0,0,1,-14,-21)">
            <path d="M1697.964,306.582C1697.892,306.727 1694.13,312.921 1690.691,326.11C1687.038,340.116 1686.267,346.903 1686.058,348.739" style="fill:none;stroke:rgb(255,202,64);stroke-width:4px;"/>
        </g>
        <g transform="matrix(1,0,0,1,-14,-21)">
            <path d="M1705.61,311.503C1704.803,313.504 1699.304,327.141 1703.321,338.371C1704.945,342.912 1709.574,343.689 1713.156,340.088C1718.42,334.795 1718.506,323.692 1718.768,317.162" style="fill:none;stroke:rgb(255,202,64);stroke-width:4px;"/>
        </g>
        <g transform="matrix(1,0,0,1,-14,-21)">
            <path d="M1729.163,341.384C1728.44,327.551 1728.613,327.555 1727.271,317.624" style="fill:none;stroke:rgb(255,202,64);stroke-width:4px;"/>
        </g>
        <g transform="matrix(1,0,0,1,-14,-21)">
            <path d="M1725.033,306.933C1723.213,299.704 1723.164,299.571 1721.821,295.054" style="fill:none;stroke:rgb(255,202,64);stroke-width:4px;"/>
        </g>
    </g>
</svg>
