<?xml version="1.0" encoding="UTF-8" standalone="no"?>
<!DOCTYPE svg PUBLIC "-//W3C//DTD SVG 1.1//EN" "http://www.w3.org/Graphics/SVG/1.1/DTD/svg11.dtd">
<svg width="100%" height="100%" viewBox="0 0 280 311" version="1.1" xmlns="http://www.w3.org/2000/svg" xmlns:xlink="http://www.w3.org/1999/xlink" xml:space="preserve" xmlns:serif="http://www.serif.com/" style="fill-rule:evenodd;clip-rule:evenodd;stroke-linejoin:round;stroke-miterlimit:2;">
    <g transform="matrix(1,0,0,1,-1593.843569,-732.48292)">
        <g transform="matrix(1,0,0,1,544,390)">
            <g transform="matrix(0.928348,0,0,0.928348,662.937801,269.347013)">
                <path d="M610.496,78.964C681.892,90.129 629.9,220.456 536.31,297.278C530.995,301.64 524.972,305.093 519.679,309.482C509.633,317.813 501.164,363.174 506.51,364.847C513.24,366.953 635.25,245.119 647.952,238.196C661.427,230.853 677.28,246.934 674.523,264.953C672.861,275.81 630.567,373.025 641.46,367.714C648.679,364.195 707.235,316.626 717.156,345.599C721.863,359.342 662.217,397.172 646.969,402.005C636.249,405.402 592.938,400.614 617.719,335.758C633.079,295.559 635.759,294.222 632.054,292.011C630.758,291.238 628.111,297.778 596.042,329.024C560.739,363.42 515.982,409.461 498.602,412.563C485.097,414.973 467.609,400.458 471.293,369.489C474.672,341.089 477.759,336.095 472.456,338.382C440.738,352.062 441.465,354.004 424.859,356.961C414.532,358.8 416.87,353.933 417.286,353.41C422.091,347.367 479.57,301.535 483.201,294.421C485.534,289.852 481.973,288.699 501.793,233.056C520.876,179.48 577.369,73.784 610.496,78.964ZM614.938,119.558C615.171,117.227 616.533,114.595 615.399,112.545C614.582,111.068 557.2,169.768 517.492,273.331C515.76,277.848 547.212,246.521 561.153,229.163C582.031,203.168 613.533,133.655 614.938,119.558Z" style="fill:rgb(255,202,64);"/>
            </g>
        </g>
    </g>
</svg>
