<svg width="124" height="147" viewBox="0 0 124 147" fill="none" xmlns="http://www.w3.org/2000/svg">
<mask id="path-1-outside-1_173_410" maskUnits="userSpaceOnUse" x="-12.6838" y="-11.311" width="160.063" height="165.719" fill="black">
<rect fill="white" x="-12.6838" y="-11.311" width="160.063" height="165.719"/>
<path d="M105.888 99.3989C110.539 100.645 113.52 103.203 112.75 106.076C111.137 112.095 101.913 113.142 95.3462 111.383C94.2518 111.09 93.0572 110.623 91.9995 110.193C91.5963 111.698 90.746 113.229 89.632 114.104C93.55 118.086 95.2204 124.985 93.6442 130.867C93.0944 132.919 91.1104 136.493 87.8273 135.613C81.3977 133.891 79.2391 123.342 80.8152 117.46C81.1818 116.092 81.8219 114.797 82.4254 113.639L81.7146 113.009C72.746 121.309 60.1454 122.918 43.1822 118.372C16.0959 111.115 6.12536 95.2472 13.1998 68.8449L20.5676 41.3482C27.642 14.9459 44.2106 6.18954 71.2968 13.4473C98.6567 20.7784 108.491 36.6092 101.416 63.0115L94.0483 90.5082C92.7287 95.433 91.2822 99.7373 88.6777 103.438C93.2438 99.5298 99.8691 97.7861 105.888 99.3989ZM37.9049 68.5734L72.7888 77.9205C80.3128 79.9366 87.808 75.4936 89.7874 68.1064C91.7668 60.7192 87.3604 53.0872 79.9732 51.1078L45.0894 41.7607C37.7022 39.7813 30.0702 44.1877 28.0908 51.5749C26.1114 58.962 30.5178 66.594 37.9049 68.5734ZM45.069 51.139C47.9418 51.9088 49.2804 54.0269 48.4006 57.3101C47.5576 60.4565 45.3393 61.6216 42.4665 60.8518C39.4569 60.0454 38.2552 57.9639 39.0983 54.8175C39.978 51.5344 42.0594 50.3326 45.069 51.139ZM75.3017 59.2399C78.1745 60.0096 79.513 62.1277 78.6333 65.4109C77.7902 68.5573 75.572 69.7224 72.6992 68.9526C69.6896 68.1462 68.4879 66.0648 69.3309 62.9184C70.2107 59.6352 72.2921 58.4335 75.3017 59.2399Z"/>
</mask>
<path d="M105.888 99.3989C110.539 100.645 113.52 103.203 112.75 106.076C111.137 112.095 101.913 113.142 95.3462 111.383C94.2518 111.09 93.0572 110.623 91.9995 110.193C91.5963 111.698 90.746 113.229 89.632 114.104C93.55 118.086 95.2204 124.985 93.6442 130.867C93.0944 132.919 91.1104 136.493 87.8273 135.613C81.3977 133.891 79.2391 123.342 80.8152 117.46C81.1818 116.092 81.8219 114.797 82.4254 113.639L81.7146 113.009C72.746 121.309 60.1454 122.918 43.1822 118.372C16.0959 111.115 6.12536 95.2472 13.1998 68.8449L20.5676 41.3482C27.642 14.9459 44.2106 6.18954 71.2968 13.4473C98.6567 20.7784 108.491 36.6092 101.416 63.0115L94.0483 90.5082C92.7287 95.433 91.2822 99.7373 88.6777 103.438C93.2438 99.5298 99.8691 97.7861 105.888 99.3989ZM37.9049 68.5734L72.7888 77.9205C80.3128 79.9366 87.808 75.4936 89.7874 68.1064C91.7668 60.7192 87.3604 53.0872 79.9732 51.1078L45.0894 41.7607C37.7022 39.7813 30.0702 44.1877 28.0908 51.5749C26.1114 58.962 30.5178 66.594 37.9049 68.5734ZM45.069 51.139C47.9418 51.9088 49.2804 54.0269 48.4006 57.3101C47.5576 60.4565 45.3393 61.6216 42.4665 60.8518C39.4569 60.0454 38.2552 57.9639 39.0983 54.8175C39.978 51.5344 42.0594 50.3326 45.069 51.139ZM75.3017 59.2399C78.1745 60.0096 79.513 62.1277 78.6333 65.4109C77.7902 68.5573 75.572 69.7224 72.6992 68.9526C69.6896 68.1462 68.4879 66.0648 69.3309 62.9184C70.2107 59.6352 72.2921 58.4335 75.3017 59.2399Z" fill="#F25546"/>
<path d="M91.9995 110.193L96.1424 100.003L84.5993 95.3099L81.3743 107.346L91.9995 110.193ZM89.632 114.104L82.84 105.451L73.1618 113.048L81.7909 121.819L89.632 114.104ZM82.4254 113.639L92.18 118.723L96.1496 111.107L89.7236 105.409L82.4254 113.639ZM81.7146 113.009L89.0128 104.779L81.5568 98.1669L74.2431 104.936L81.7146 113.009ZM88.6777 103.438L79.6821 97.1073L95.8305 111.795L88.6777 103.438ZM105.888 99.3989L103.041 110.024C104.327 110.369 104.365 110.656 103.825 110.149C103.502 109.846 102.81 109.092 102.332 107.791C101.811 106.374 101.716 104.753 102.125 103.229L112.75 106.076L123.375 108.923C125.119 102.416 122.08 97.1095 118.879 94.1061C115.878 91.2901 112.1 89.6755 108.735 88.7738L105.888 99.3989ZM112.75 106.076L102.125 103.229C102.427 102.102 103.105 101.328 103.574 100.968C103.927 100.696 103.96 100.802 103.352 100.947C102.783 101.083 101.952 101.178 100.944 101.148C99.9449 101.117 98.982 100.969 98.1932 100.758L95.3461 111.383L92.4991 122.008C97.2969 123.294 103.115 123.621 108.459 122.346C113.592 121.121 121.059 117.565 123.375 108.923L112.75 106.076ZM95.3461 111.383L98.1932 100.758C97.8299 100.66 97.2021 100.434 96.1424 100.003L91.9995 110.193L87.8566 120.383C88.9123 120.812 90.6736 121.519 92.4991 122.008L95.3461 111.383ZM91.9995 110.193L81.3743 107.346C81.4206 107.173 81.4862 107.002 81.6134 106.786C81.7211 106.604 82.0698 106.056 82.84 105.451L89.632 114.104L96.4239 122.757C99.9682 119.974 101.819 116.048 102.625 113.04L91.9995 110.193ZM89.632 114.104L81.7909 121.819C82.7189 122.762 83.6846 125.536 83.019 128.02L93.6442 130.867L104.269 133.714C106.756 124.434 104.381 113.41 97.4731 106.389L89.632 114.104ZM93.6442 130.867L83.019 128.02C83.0876 127.765 83.147 127.637 83.1892 127.555C83.2282 127.48 83.378 127.198 83.7363 126.816C84.0917 126.437 84.8888 125.711 86.219 125.218C87.6898 124.673 89.2814 124.615 90.6743 124.988L87.8273 135.613L84.9802 146.239C91.7325 148.048 96.996 144.838 99.7852 141.864C102.302 139.18 103.656 136.005 104.269 133.714L93.6442 130.867ZM87.8273 135.613L90.6743 124.988C91.7466 125.276 92.2639 125.854 92.3131 125.914C92.3186 125.921 92.0648 125.586 91.7973 124.749C91.541 123.946 91.3725 122.991 91.3311 122.051C91.2881 121.074 91.3969 120.469 91.4404 120.307L80.8152 117.46L70.19 114.613C68.7788 119.879 69.1506 126.154 70.8409 131.444C72.4281 136.412 76.3833 143.935 84.9802 146.239L87.8273 135.613ZM80.8152 117.46L91.4404 120.307C91.4383 120.315 91.4712 120.193 91.6002 119.9C91.732 119.601 91.9079 119.245 92.18 118.723L82.4254 113.639L72.6709 108.555C72.05 109.746 70.8971 111.974 70.19 114.613L80.8152 117.46ZM82.4254 113.639L89.7236 105.409L89.0128 104.779L81.7146 113.009L74.4164 121.239L75.1273 121.869L82.4254 113.639ZM81.7146 113.009L74.2431 104.936C69.2324 109.573 61.2373 111.822 46.0292 107.747L43.1822 118.372L40.3352 128.998C59.0535 134.013 76.2596 133.045 89.1861 121.082L81.7146 113.009ZM43.1822 118.372L46.0292 107.747C33.8784 104.491 27.7003 99.8534 24.7675 95.0531C21.9132 90.3812 20.7304 83.2412 23.825 71.6919L13.1998 68.8449L2.57465 65.9979C-1.40521 80.8509 -1.14 94.8459 5.99396 106.523C13.0494 118.071 25.3997 124.996 40.3352 128.998L43.1822 118.372ZM13.1998 68.8449L23.825 71.6919L31.1927 44.1952L20.5675 41.3482L9.94237 38.5012L2.57465 65.9979L13.1998 68.8449ZM20.5675 41.3482L31.1927 44.1952C34.2874 32.646 38.8817 27.054 43.6895 24.4351C48.6296 21.7443 56.299 20.8167 68.4498 24.0725L71.2968 13.4473L74.1439 2.82211C59.2084 -1.17985 45.0504 -1.35815 33.166 5.11533C21.1494 11.6608 13.9222 23.6482 9.94237 38.5012L20.5675 41.3482ZM71.2968 13.4473L68.4498 24.0725C80.7635 27.3719 86.9591 32.0275 89.8825 36.8125C92.7261 41.4668 93.8931 48.5868 90.7909 60.1645L101.416 63.0115L112.041 65.8585C116.013 51.0339 115.801 37.0373 108.656 25.3429C101.591 13.7791 89.19 6.85372 74.1439 2.82211L71.2968 13.4473ZM101.416 63.0115L90.7909 60.1645L83.4231 87.6612L94.0483 90.5082L104.674 93.3552L112.041 65.8585L101.416 63.0115ZM94.0483 90.5082L83.4231 87.6612C82.1633 92.363 81.111 95.0768 79.6821 97.1073L88.6777 103.438L97.6733 109.769C101.453 104.398 103.294 98.503 104.674 93.3552L94.0483 90.5082ZM88.6777 103.438L95.8305 111.795C97.8321 110.082 100.761 109.413 103.041 110.024L105.888 99.3989L108.735 88.7738C98.9768 86.159 88.6556 88.9778 81.5249 95.0812L88.6777 103.438ZM37.9049 68.5734L35.0579 79.1986L69.9418 88.5457L72.7888 77.9205L75.6358 67.2954L40.752 57.9482L37.9049 68.5734ZM72.7888 77.9205L69.9418 88.5457C83.4046 92.1531 96.8798 84.1378 100.413 70.9534L89.7874 68.1064L79.1622 65.2594C78.7362 66.8494 77.221 67.7201 75.6358 67.2954L72.7888 77.9205ZM89.7874 68.1064L100.413 70.9534C103.964 57.6981 96.0756 44.0344 82.8203 40.4827L79.9732 51.1078L77.1262 61.733C78.6453 62.1401 79.5692 63.7404 79.1622 65.2594L89.7874 68.1064ZM79.9732 51.1078L82.8203 40.4827L47.9364 31.1355L45.0894 41.7607L42.2424 52.3859L77.1262 61.733L79.9732 51.1078ZM45.0894 41.7607L47.9364 31.1355C34.6811 27.5838 21.0174 35.4726 17.4656 48.7279L28.0908 51.5749L38.716 54.4219C39.123 52.9028 40.7233 51.9789 42.2424 52.3859L45.0894 41.7607ZM28.0908 51.5749L17.4656 48.7279C13.9139 61.9832 21.8026 75.6469 35.0579 79.1986L37.9049 68.5734L40.752 57.9482C39.2329 57.5412 38.309 55.9409 38.716 54.4219L28.0908 51.5749ZM45.069 51.139L42.222 61.7642C41.6637 61.6146 39.8126 60.9077 38.5584 58.6815C37.3222 56.4873 37.7174 54.6796 37.7754 54.4631L48.4006 57.3101L59.0258 60.1571C59.9636 56.6574 60.1294 52.149 57.7257 47.8826C55.3039 43.5841 51.3471 41.4332 47.916 40.5139L45.069 51.139ZM48.4006 57.3101L37.7754 54.4631C37.8833 54.0605 38.5209 52.2783 40.6947 51.0232C42.8582 49.7741 44.7594 50.0781 45.3135 50.2266L42.4665 60.8518L39.6195 71.477C43.0464 72.3952 47.4931 72.5016 51.6947 70.0758C55.9066 67.644 58.0749 63.706 59.0258 60.1571L48.4006 57.3101ZM42.4665 60.8518L45.3135 50.2266C45.6833 50.3257 47.6091 50.9825 48.9225 53.3149C50.2099 55.6011 49.7714 57.4856 49.7234 57.6646L39.0983 54.8175L28.4731 51.9705C27.5821 55.2959 27.3229 59.7943 29.7528 64.1094C32.2086 68.4707 36.2401 70.5715 39.6195 71.477L42.4665 60.8518ZM39.0983 54.8175L49.7234 57.6646C49.7135 57.7017 49.5959 58.1343 49.1965 58.7476C48.7731 59.3977 48.0618 60.2 46.9863 60.8518C44.6482 62.2689 42.5948 61.8641 42.222 61.7642L45.069 51.139L47.916 40.5139C44.5337 39.6076 39.9347 39.4004 35.5836 42.0376C31.3266 44.6176 29.3523 48.6891 28.4731 51.9705L39.0983 54.8175ZM75.3017 59.2399L72.4547 69.8651C71.8964 69.7155 70.0453 69.0085 68.7911 66.7823C67.5549 64.5881 67.9501 62.7805 68.0081 62.5639L78.6333 65.4109L89.2585 68.2579C90.1962 64.7582 90.3621 60.2499 87.9583 55.9834C85.5366 51.6849 81.5798 49.534 78.1487 48.6147L75.3017 59.2399ZM78.6333 65.4109L68.0081 62.5639C68.116 62.1614 68.7535 60.3791 70.9274 59.1241C73.0909 57.8749 74.9921 58.179 75.5462 58.3274L72.6992 68.9526L69.8522 79.5778C73.2791 80.4961 77.7258 80.6024 81.9274 78.1766C86.1393 75.7448 88.3076 71.8069 89.2585 68.2579L78.6333 65.4109ZM72.6992 68.9526L75.5462 58.3274C75.916 58.4265 77.8418 59.0833 79.1552 61.4157C80.4425 63.7019 80.0041 65.5864 79.9561 65.7654L69.3309 62.9184L58.7058 60.0714C57.8147 63.3967 57.5556 67.8951 59.9855 72.2102C62.4413 76.5716 66.4728 78.6723 69.8522 79.5778L72.6992 68.9526ZM69.3309 62.9184L79.9561 65.7654C79.9462 65.8025 79.8286 66.2352 79.4292 66.8484C79.0058 67.4985 78.2945 68.3009 77.219 68.9526C74.8809 70.3697 72.8275 69.9649 72.4547 69.8651L75.3017 59.2399L78.1487 48.6147C74.7663 47.7084 70.1674 47.5013 65.8162 50.1384C61.5593 52.7184 59.585 56.7899 58.7058 60.0714L69.3309 62.9184Z" fill="#FAF3F0" mask="url(#path-1-outside-1_173_410)"/>
</svg>
